<?xml version="1.0" encoding="utf-8"?>
<!-- Generator: Adobe Illustrator 17.1.0, SVG Export Plug-In . SVG Version: 6.00 Build 0)  -->
<!DOCTYPE svg PUBLIC "-//W3C//DTD SVG 1.1//EN" "http://www.w3.org/Graphics/SVG/1.1/DTD/svg11.dtd">
<svg version="1.1" id="Layer_1" xmlns="http://www.w3.org/2000/svg" xmlns:xlink="http://www.w3.org/1999/xlink" x="0px" y="0px"
	 viewBox="0 0 144 144" enable-background="new 0 0 144 144" xml:space="preserve">
<path fill="#B6C877" d="M20.8,60.1c-1.4,3.7-3.4-0.8-3.7-4.1c-0.2-7.2,3.5-6-2.9-18.8c2.2,4.7,5.8,10.4,7,16.1
	C21.9,56.2,21.2,58.6,20.8,60.1z"/>
<path fill="#B6C877" d="M39.6,87.9C27.9,93,18.9,85,10.9,77c7.8,8.6,17,5,25,7.8C39.1,86,41.3,87.4,39.6,87.9z"/>
<path fill="#B6C877" d="M47.6,95.3c-8.4,4.6-18,2.1-24.3-3.8c-0.2-0.2-0.5-0.4-0.7-0.6c-1.7-1.4-3.3-2.7-4.9-3.8
	c0.6,0.3,1.2,0.6,1.8,1c3.5,2.2,7.5,3.4,11.7,3.5c4.2,0,8.3-0.3,11.7,0.7C46.2,92.9,48.6,94.1,47.6,95.3z"/>
<path fill="#B6C877" d="M15.4,61.3c-3.2-0.7-8.9-1.9-11.1-9.3c-0.9-3-1.9-15.2-1.9-15.2s0.7,6.3,7.2,13.1
	C11.1,51.5,18.6,62,15.4,61.3z"/>
<path fill="#B6C877" d="M23.5,71.7c-1.8,0.5-9.2,1.1-14.6-3.1C6.7,66.8,0.7,56,0.7,56s3.9,7.5,11.7,8.3
	C17.1,64.8,26.7,70.9,23.5,71.7z"/>
<path fill="#B6C877" d="M29.8,79.5c-3.2,0.7-9,2.1-15.2-2.1C12.1,75.8,2.4,65.9,2.4,65.9s7.9,9.1,14.5,8c1-0.2,5.1-0.1,7.4,0.6
	C28.9,76,31.9,79,29.8,79.5z"/>
<path fill="#B6C877" d="M92.4,120.3c0.7,0.3,0.9,1.2,0.4,1.8c-1.5,1.6-4.8,4.2-10.4,4.6c-12.5,0.9-23.2-6.7-23.2-6.7s5.3,2.7,15,0.6
	c5.1-1.1,11.9-4.2,16-1.6C90.9,119.6,91.7,120,92.4,120.3z"/>
<path fill="#B6C877" d="M78.1,114.2c0.8,0.3,1,1.2,0.3,1.7c-1.6,1.3-4.9,3.3-10.4,3.5c-12.4,0.5-23-6.5-23-6.5s4,1.7,11.7,1.4
	c5.2-0.2,11.2-4.5,19.2-1.1L78.1,114.2z"/>
<path fill="#B6C877" d="M69.3,107.6c0.6,0.3,0.7,1,0.3,1.4c-1.4,1.3-4.7,3.4-10.3,3.6c-12,0.4-25.3-8.1-25.3-8.1s7.8,3.2,14.4,3
	c5-0.2,10.8-4.4,18.5-1L69.3,107.6z"/>
<path fill="#B6C877" d="M137.8,143c0,0,1.9-0.3,0-3.2c-3.8-5.8-21.2-14.7-38.8-18c0,0-1.1,1.2,0.5,1.7
	C107.4,125.8,132.9,132.5,137.8,143z"/>
<path fill="#B6C877" d="M117.6,137.7c0,0,1,0.5,1.9-1.4c1.8-4-0.3-14.2-5.8-22.1c0,0-1.2,0.1-0.8,0.9
	C114.8,118.9,121.7,131.2,117.6,137.7z"/>
<path fill="#B6C877" d="M57.3,101.8c-8.5,5.1-18.7,3.1-25.6-2.5c-0.3-0.2-0.5-0.4-0.8-0.6c-1.9-1.3-3.7-2.5-5.4-3.5
	c0.6,0.3,1.3,0.5,1.9,0.9c3.8,2,8.1,3,12.5,2.8c4.3-0.2,8.7-0.8,12.2,0.1C55.6,99.5,58.3,100.6,57.3,101.8z"/>
<path fill="#B6C877" d="M25.8,68.8c5.3-7.9,0.3-14.7-4.9-20.7c5.7,5.9,1.8,12.2,3,17.9C24.4,68.4,25.2,70,25.8,68.8z"/>
<path fill="#B6C877" d="M33.7,76.1c3.1-6.3,0.9-13.7-3.7-18.7c-0.2-0.2-0.3-0.4-0.5-0.6c-1.1-1.3-2.1-2.6-3-3.9
	c0.2,0.5,0.5,0.9,0.8,1.4c1.7,2.7,2.8,5.8,3,9.1c0.2,3.2,0,6.4,0.9,8.9C31.9,74.9,32.8,76.9,33.7,76.1z"/>
<path fill="#B6C877" d="M53.1,92.1c0.3,0.3,0.9,0.2,1.1-0.2c0.7-1.1,1.7-3.4,0.8-6.7c-1.9-6.9-10.8-12.6-10.8-12.6s3.9,3.7,4.9,7.5
	c0.8,2.9-1.3,7.1,2.7,10.8L53.1,92.1z"/>
<path fill="#B6C877" d="M43.7,84.4c2.3-6.4-0.6-13.4-5.7-17.8c-0.2-0.2-0.4-0.3-0.6-0.5c-1.2-1.2-2.4-2.4-3.4-3.5
	c0.3,0.4,0.6,0.9,0.9,1.3c2,2.5,3.4,5.5,3.9,8.6c0.5,3.1,0.8,6.2,1.9,8.6C41.8,83.4,42.9,85.2,43.7,84.4z"/>
<path fill="#B6C877" d="M93.9,118.6c0.6,0.4,1.5,0.1,1.7-0.7c0.7-2,1.3-6-1-10.7c-5.1-10.4-16.6-14.9-16.6-14.9s4.8,2.8,7.5,11.5
	c1.4,4.7,2,11.6,6.1,13.5C92.7,117.9,93.4,118.3,93.9,118.6z"/>
<path fill="#B6C877" d="M82.5,113.1c0.6,0.5,1.5,0.3,1.7-0.4c0.5-1.8,0.9-5.3-1.2-10c-4.7-10.4-15.5-16.4-15.5-16.4s3.2,2.6,6.2,9.1
	c2,4.4,0.6,11,7,16.3L82.5,113.1z"/>
<path fill="#B6C877" d="M70.5,105.7c0.4,0.3,1.1,0.2,1.4-0.2c0.9-1.3,2.3-4.2,1.3-8.1C71,89.1,59.7,82.3,59.7,82.3s4.8,4.4,6.1,9
	c0.9,3.5-1.9,8.6,3.1,13L70.5,105.7z"/>
<path fill="#B6C877" d="M62,100.7c0.3,0.3,0.9,0.3,1.1-0.1c0.7-1.1,1.7-3.6,0.7-7.2c-2-7.6-11.1-14.4-11.1-14.4s4,4.3,5.1,8.5
	c0.9,3.2-1.2,7.7,2.9,11.9L62,100.7z"/>
<path fill="#B6C877" d="M103.3,27.9c2.8-5.1,1.5-10.2-1.7-13.1c-0.1-0.1-0.2-0.2-0.4-0.3c-0.8-0.8-1.5-1.6-2.1-2.4
	c0.2,0.3,0.3,0.6,0.5,0.9c1.2,1.7,1.8,3.9,1.8,6.2c-0.1,2.3-0.3,4.6,0.2,6.4C101.9,27.3,102.6,28.6,103.3,27.9z"/>
<path fill="#B6C877" d="M103.2,71c-4.4-9.4,7.1-13.5,5.9-22.1c0.8,5.7,2.7,12.4-2.5,16.2C102.1,69.6,103.2,71,103.2,71z"/>
<path fill="#B6C877" d="M98.5,59c-2.4-0.4-4.1-1.5-5.2-3c-4.3-5.2-2.5-7-2.5-18.8c0,10.1,5.4,10.9,7.6,17.6
	C99.3,57.2,99.6,59.3,98.5,59z"/>
<path fill="#B6C877" d="M99.4,70.5c-3.2-1.2-5.5-3.3-7.1-5.8c-1.6-2.5-2.5-5.5-2.9-8.6C89.1,54.1,89,52,89,50
	c0.9,3.2,2.3,5.9,3.9,8.4s3.7,4.8,5.8,7.1C100,68.1,100.6,70.7,99.4,70.5z"/>
<path fill="#B6C877" d="M102.7,58.2c-0.8-2.2-0.7-4.1,0-5.7c2-4.9,8.7-8,7.5-14.2c0,2.7,0,5.7-0.5,8.4c-0.5,2.7-1.5,5.1-3.5,6.6
	C102,56.9,102.7,58.2,102.7,58.2z"/>
<path fill="#B6C877" d="M99.7,36.3c-8.9-6.2-3-17.3-1.4-25c-1.6,6.9-0.5,13.8,2.1,20.5C100.7,34.7,100.7,36.9,99.7,36.3z"/>
<path fill="#B6C877" d="M98.2,48c-11.1-3.5-4.7-18-2.9-26.2c-2.7,7.3,1.8,14.5,3.2,21.6C99.2,46.1,99.3,48.4,98.2,48z"/>
<path fill="#B6C877" d="M104.3,83c-5.4-8.3,6.7-14.9,5.1-23.9c1.6,5.4,4.9,13.4-1.8,18.2C103.3,81.5,104.3,83,104.3,83z"/>
<path fill="#B6C877" d="M99.5,82c-2.6-0.1-4.6-1-6-2.5C89.3,75,89.7,65.4,89,60c0.5,3.6,2,6.6,3.9,9.3c1.9,2.7,4.1,5.1,5.7,7.6
	C100,79.6,100.8,82.2,99.5,82z"/>
<path fill="#B6C877" d="M112.2,114.3c-13.3,2-22.3-13.4-21.4-25.2c-1.8,13.6,13.6,14.5,19.7,21.9
	C111.4,113.3,112.2,114.3,112.2,114.3z"/>
<path fill="#B6C877" d="M107.2,103.4c-10.1,2-17.3-8.9-16.4-18c0.9,9.1,10.9,8.2,14.9,15C107.2,103.4,107.2,103.4,107.2,103.4z"/>
<path fill="#B6C877" d="M104.3,93c-2.7,0.4-5-0.2-7-1.4c-2-1.2-3.7-3-4.9-5.2C88.9,80,89.7,72,89.9,70.9c-0.9,5,1.6,7.9,4.7,10.5
	c1.6,1.3,3.3,2.5,4.8,3.8c1.5,1.3,2.8,2.8,3.6,4.5C104.3,93,104.3,93,104.3,93z"/>
<path fill="#B6C877" d="M112.2,112.7c0.2,0.6,0.8,0.8,1.4,0.5c1.4-0.9,3.8-3,4.8-7c2.2-9-2.4-17.5-2.4-17.5s1.5,4.2-1.3,10.9
	c-1.5,3.6-4.6,8.1-3.1,11.3C111.8,111.6,112,112.2,112.2,112.7z"/>
<path fill="#B6C877" d="M109.8,101.1c0.1,0.5,0.7,0.8,1.1,0.5c1.1-0.7,2.8-2.4,3.7-5.7c2-7.5-1.1-15.2-1.1-15.2s0.6,2.8-0.7,7.4
	c-0.9,3.2-4.5,6-3.4,11.5L109.8,101.1z"/>
<path fill="#B6C877" d="M105.3,90.3c2.2-0.4,3.9-1.4,5.2-2.8c1.3-1.5,2.2-3.3,2.5-5.3c1.1-5.9-1.5-12-1.9-12.9
	c2,3.7,0.7,6.7-1.1,9.5c-0.9,1.4-2,2.8-2.8,4.2c-0.9,1.4-1.5,2.9-1.7,4.5C105.3,90.3,105.3,90.3,105.3,90.3z"/>
<path fill="#B6C877" d="M102.5,36.2c7.6-0.8,4.2-11.5,3.5-17.3c1.4,5.3-2.1,9.6-3.5,14.2C101.9,34.8,101.8,36.3,102.5,36.2z"/>
<path fill="#B6C877" d="M101.4,49.2c-0.8-2.2-0.7-4.1,0-5.7c2-4.9,8.7-8,7.5-14.2c0,2.7,0,5.7-0.5,8.4c-0.5,2.7-1.5,5.1-3.5,6.6
	C100.8,47.9,101.4,49.2,101.4,49.2z"/>
<g>
	<path fill="#B6C877" d="M254.4,19.6c2.8-5.1,1.5-10.2-1.7-13.1c-0.1-0.1-0.2-0.2-0.4-0.3c-0.8-0.8-1.5-1.6-2.1-2.4
		c0.2,0.3,0.3,0.6,0.5,0.9c1.2,1.7,1.8,3.9,1.8,6.2c-0.1,2.3-0.3,4.6,0.2,6.4C253.1,19,253.7,20.3,254.4,19.6z"/>
	<path fill="#B6C877" d="M254.3,62.7c-4.4-9.4,7.1-13.5,5.9-22.1c0.8,5.7,2.7,12.4-2.5,16.2C253.3,61.3,254.3,62.7,254.3,62.7z"/>
	<path fill="#B6C877" d="M248,50.7c-2-0.4-3.4-1.5-4.3-3c-3.6-5.2-2-7-2.1-18.8c0,10.1,4.5,10.9,6.3,17.6
		C248.7,48.9,249,51,248,50.7z"/>
	<path fill="#B6C877" d="M248.8,62.2c-2.7-1.2-4.6-3.3-5.9-5.8c-1.3-2.5-2-5.5-2.4-8.6c-0.3-2.1-0.3-4.2-0.3-6.2
		c0.7,3.2,1.9,5.9,3.3,8.4s3,4.8,4.8,7.1C249.3,59.8,249.8,62.4,248.8,62.2z"/>
	<path fill="#B6C877" d="M250.8,28c-8.9-6.2-3-17.3-1.4-25c-1.6,6.9-0.5,13.8,2.1,20.5C251.9,26.4,251.8,28.6,250.8,28z"/>
	<path fill="#B6C877" d="M249.4,39.7c-11.1-3.5-4.7-18-2.9-26.2c-2.7,7.3,1.8,14.5,3.2,21.6C250.3,37.8,250.4,40.1,249.4,39.7z"/>
	<path fill="#B6C877" d="M255.4,74.7c-5.4-8.3,6.7-14.9,5.1-23.9c1.6,5.4,4.9,13.4-1.8,18.2C254.4,73.2,255.4,74.7,255.4,74.7z"/>
	<path fill="#B6C877" d="M250.7,73.7c-2.6-0.1-4.6-1-6-2.5c-4.2-4.5-3.9-14.1-4.6-19.5c0.5,3.6,2,6.6,3.9,9.3
		c1.9,2.7,4.1,5.1,5.7,7.6C251.1,71.3,251.9,73.9,250.7,73.7z"/>
	<path fill="#B6C877" d="M263.4,104.5c-11.9,1.4-20.6-12.5-20.2-22.8c-1.2,11.9,12.8,13.2,18.6,19.9
		C262.6,103.6,263.4,104.5,263.4,104.5z"/>
	<path fill="#B6C877" d="M258.5,93.8c-9.4,1.1-17.1-9.1-16.8-17.2c1.5,8.2,10.9,8.1,15.2,14.4C258.5,93.8,258.5,93.8,258.5,93.8z"/>
	<path fill="#B6C877" d="M255.4,84.7c-2.7,0.4-5-0.2-7-1.4s-3.7-3-4.9-5.2c-3.5-6.4-2.6-14.3-2.5-15.5c-0.9,5,1.6,7.9,4.7,10.5
		c1.6,1.3,3.3,2.5,4.8,3.8c1.5,1.3,2.8,2.8,3.6,4.5C255.4,84.7,255.4,84.7,255.4,84.7z"/>
	<path fill="#B6C877" d="M263.8,104.4c0.2,0.6,1,0.8,1.6,0.5c1.7-0.9,4.4-3,5.6-7c2.6-9-2.8-17.5-2.8-17.5s1.7,4.2-1.6,10.9
		c-1.7,3.6-5.4,8.1-3.7,11.3C263.4,103.3,263.7,103.9,263.8,104.4z"/>
	<path fill="#B6C877" d="M261,92.8c0.1,0.5,0.8,0.8,1.3,0.5c1.3-0.7,3.3-2.4,4.4-5.7c2.4-7.5-1.3-15.2-1.3-15.2s0.7,2.8-0.8,7.4
		c-1,3.2-5.3,6-4,11.5L261,92.8z"/>
	<path fill="#B6C877" d="M253.6,27.9c7.6-0.8,4.2-11.5,3.5-17.3c1.4,5.3-2.1,9.6-3.5,14.2C253.1,26.5,252.9,28,253.6,27.9z"/>
	<path fill="#B6C877" d="M253.6,40.9c-0.8-2.2-0.7-4.1,0-5.7c2-4.9,8.7-8,7.5-14.2c0,2.7,0,5.7-0.5,8.4c-0.5,2.7-1.5,5.1-3.5,6.6
		C252.9,39.6,253.6,40.9,253.6,40.9z"/>
	<path fill="#B6C877" d="M254.3,50.8c-1-2.2-0.9-4-0.4-5.7c1.7-5,8.2-8.5,6.6-14.6c0.2,2.7,0.3,5.7,0,8.4c-0.3,2.7-1.2,5.1-3.1,6.8
		C253.6,49.6,254.3,50.8,254.3,50.8z"/>
	<path fill="#B6C877" d="M257,83.1c2.3-0.5,4.1-1.8,5.3-3.4c1.2-1.6,2-3.6,2.3-5.8c0.8-6.3-2.4-12.6-2.9-13.4
		c2.3,3.8,1.2,7-0.5,10.1c-0.9,1.6-1.9,3.1-2.7,4.6c-0.8,1.6-1.4,3.2-1.5,4.9C257,83.1,257,83.1,257,83.1z"/>
</g>
<path fill="#B6C877" d="M185.8,111.7c0.6,0.4,1.5,0.1,1.7-0.7c0.7-2,1.3-6-1-10.7c-5.1-10.4-16.6-14.9-16.6-14.9s4.8,2.8,7.5,11.5
	c1.4,4.7,2,11.6,6.1,13.5C184.5,111,185.2,111.4,185.8,111.7z"/>
<path fill="#B6C877" d="M195.3,21c2.9-5.1,1.6-10.2-1.8-13.1c-0.1-0.1-0.3-0.2-0.4-0.3c-0.8-0.8-1.6-1.6-2.2-2.4
	c0.2,0.3,0.3,0.6,0.5,0.9c1.2,1.7,1.9,3.9,1.8,6.2c-0.1,2.3-0.4,4.6,0.2,6.4C193.9,20.4,194.5,21.7,195.3,21z"/>
<path fill="#B6C877" d="M195,64.1c-4.4-9.4,7.1-13.5,5.9-22.1c0.8,5.7,2.7,12.4-2.5,16.2C193.9,62.7,195,64.1,195,64.1z"/>
<path fill="#B6C877" d="M188.7,52.1c-2-0.4-3.4-1.5-4.3-3c-3.6-5.2-2-7-2.1-18.8c0,10.1,4.5,10.9,6.3,17.6
	C189.4,50.3,189.6,52.4,188.7,52.1z"/>
<path fill="#B6C877" d="M189.4,63.6c-2.7-1.2-4.6-3.3-5.9-5.8c-1.3-2.5-2-5.5-2.4-8.6c-0.3-2.1-0.3-4.2-0.3-6.2
	c0.7,3.2,1.9,5.9,3.3,8.4s3,4.8,4.8,7.1C189.9,61.2,190.4,63.8,189.4,63.6z"/>
<path fill="#B6C877" d="M224.1,53.4c-1.6-2.3-1.8-4.3-1.3-6c1.5-5.1,9.5-8.2,6.4-14.7c0.6,2.9,1.3,6,1.3,8.8c0,2.8-0.8,5.3-3.1,6.9
	C223,52,224.1,53.4,224.1,53.4z"/>
<path fill="#B6C877" d="M191.5,29.4c-8.9-6.2-3-17.3-1.4-25c-1.6,6.9-0.5,13.8,2.1,20.5C192.6,27.8,192.5,30,191.5,29.4z"/>
<path fill="#B6C877" d="M190,41.1c-11.1-3.5-4.7-18-2.9-26.2c-2.7,7.3,1.8,14.5,3.2,21.6C191,39.2,191.1,41.5,190,41.1z"/>
<path fill="#B6C877" d="M196.1,76.1c-5.4-8.3,6.7-14.9,5.1-23.9c1.6,5.4,4.9,13.4-1.8,18.2C195.1,74.6,196.1,76.1,196.1,76.1z"/>
<path fill="#B6C877" d="M191.3,75.1c-2.6-0.1-4.6-1-6-2.5c-4.2-4.5-3.9-14.1-4.6-19.5c0.5,3.6,2,6.6,3.9,9.3
	c1.9,2.7,4.1,5.1,5.7,7.6C191.8,72.7,192.6,75.3,191.3,75.1z"/>
<path fill="#B6C877" d="M204,105.9c-11.9,1.4-20.6-12.5-20.2-22.8c-1.2,11.9,12.8,13.2,18.6,19.9C203.2,105,204,105.9,204,105.9z"/>
<path fill="#B6C877" d="M199.1,95.2c-9.4,1.1-17.1-9.1-16.8-17.2c1.5,8.2,10.9,8.1,15.2,14.4C199.1,95.2,199.1,95.2,199.1,95.2z"/>
<path fill="#B6C877" d="M196.1,86.1c-2.7,0.4-5-0.2-7-1.4c-2-1.2-3.7-3-4.9-5.2c-3.5-6.4-2.6-14.3-2.5-15.5c-0.9,5,1.6,7.9,4.7,10.5
	c1.6,1.3,3.3,2.5,4.8,3.8c1.5,1.3,2.8,2.8,3.6,4.5C196.1,86.1,196.1,86.1,196.1,86.1z"/>
<path fill="#B6C877" d="M194.4,29.3c7.9-0.8,4.4-11.5,3.7-17.3c1.4,5.3-2.2,9.6-3.6,14.2C193.9,27.9,193.7,29.4,194.4,29.3z"/>
<path fill="#B6C877" d="M194.2,42.3c-0.8-2.2-0.7-4.1,0-5.7c2-4.9,8.7-8,7.5-14.2c0,2.7,0,5.7-0.5,8.4c-0.5,2.7-1.5,5.1-3.5,6.6
	C193.6,41,194.2,42.3,194.2,42.3z"/>
<path fill="#B6C877" d="M195,52.2c-1-2.2-0.9-4-0.4-5.7c1.7-5,8.2-8.5,6.6-14.6c0.2,2.7,0.3,5.7,0,8.4c-0.3,2.7-1.2,5.1-3.1,6.8
	C194.3,51,195,52.2,195,52.2z"/>
<path fill="#B6C877" d="M204.1,105.1c0.2,0.6,0.8,0.8,1.4,0.5c1.4-0.9,3.8-3,4.8-7c2.2-9-2.4-17.5-2.4-17.5s1.5,4.2-1.3,10.9
	c-1.5,3.6-4.6,8.1-3.1,11.3C203.7,104,204,104.6,204.1,105.1z"/>
<path fill="#B6C877" d="M201.7,93.4c0.1,0.5,0.7,0.8,1.1,0.5c1.1-0.7,2.8-2.4,3.7-5.7c2-7.5-1.1-15.2-1.1-15.2s0.6,2.8-0.7,7.4
	c-0.9,3.2-4.5,6-3.4,11.5L201.7,93.4z"/>
<path fill="#B6C877" d="M197.2,82.6c2.2-0.4,3.9-1.4,5.2-2.8c1.3-1.5,2.2-3.3,2.5-5.3c1.1-5.9-1.5-12-1.9-12.9
	c2,3.7,0.7,6.7-1.1,9.5c-0.9,1.4-2,2.8-2.8,4.2c-0.9,1.4-1.5,2.9-1.7,4.5C197.2,82.6,197.2,82.6,197.2,82.6z"/>
</svg>
